# MagicaVoxel @ Ephtracy

# group
o 

# material
mtllib ground.mtl
usemtl palette

# normals
vn -1 0 0
vn 1 0 0
vn 0 0 1
vn 0 0 -1
vn 0 -1 0
vn 0 1 0

# texcoords
vt 0.263672 0.5
vt 0.486328 0.5
vt 0.494141 0.5
vt 0.837891 0.5
vt 0.841797 0.5
vt 0.958984 0.5
vt 0.982422 0.5

# verts
v -5 -2 2
v -5 -2 1
v -5 -2 0.8
v -5 -2 -0.8
v -5 -2 -1
v -5 -2 -2
v -5 -1.8 2
v -5 -1.8 1
v -5 -1.8 0.8
v -5 -1.8 -0.8
v -5 -1.8 -1
v -5 -1.8 -2
v -4.6 -1.8 -1.2
v -4.6 -1.8 -1.8
v -4.6 -1.6 -1.2
v -4.6 -1.6 -1.8
v -4.4 -1.6 -1.2
v -4.4 -1.6 -1.8
v -4.4 -1.4 -1.2
v -4.4 -1.4 -1.8
v -3.4 -1.8 2
v -3.4 -1.8 1.2
v -3.4 -1.6 2
v -3.4 -1.6 1.2
v -3.2 -1.6 1.8
v -3.2 -1.6 1.4
v -3.2 -1.4 1.8
v -3.2 -1.4 1.4
v -0.8 -1.8 2
v -0.8 -1.8 1.2
v -0.8 -1.6 2
v -0.8 -1.6 1.2
v -0.4 -1.6 1.8
v -0.4 -1.6 1.4
v -0.4 -1.4 1.8
v -0.4 -1.4 1.4
v 0 -1.8 -1.2
v 0 -1.8 -1.8
v 0 -1.6 -1.2
v 0 -1.6 -1.8
v 0.8 -1.6 -1.4
v 0.8 -1.6 -1.8
v 0.8 -1.4 -1.4
v 0.8 -1.4 -1.8
v 3.6 -1.8 1.8
v 3.6 -1.8 1
v 3.6 -1.6 1.8
v 3.6 -1.6 1
v 4 -1.6 1.6
v 4 -1.6 1.2
v 4 -1.4 1.6
v 4 -1.4 1.2
v -4 -1.6 -1.2
v -4 -1.6 -1.8
v -4 -1.4 -1.2
v -4 -1.4 -1.8
v -3.8 -1.8 -1.2
v -3.8 -1.8 -1.8
v -3.8 -1.6 -1.2
v -3.8 -1.6 -1.8
v -2.4 -1.6 1.8
v -2.4 -1.6 1.4
v -2.4 -1.4 1.8
v -2.4 -1.4 1.4
v -2 -1.8 2
v -2 -1.8 1.2
v -2 -1.6 2
v -2 -1.6 1.2
v 0.2 -1.6 1.8
v 0.2 -1.6 1.4
v 0.2 -1.4 1.8
v 0.2 -1.4 1.4
v 0.6 -1.8 2
v 0.6 -1.8 1.2
v 0.6 -1.6 2
v 0.6 -1.6 1.2
v 1.8 -1.6 -1.4
v 1.8 -1.6 -1.8
v 1.8 -1.4 -1.4
v 1.8 -1.4 -1.8
v 2.6 -1.8 -1.2
v 2.6 -1.8 -1.8
v 2.6 -1.6 -1.2
v 2.6 -1.6 -1.8
v 4.6 -1.6 1.6
v 4.6 -1.6 1.2
v 4.6 -1.4 1.6
v 4.6 -1.4 1.2
v 5 -2 2
v 5 -2 1
v 5 -2 0.8
v 5 -2 -0.8
v 5 -2 -1
v 5 -2 -2
v 5 -1.8 2
v 5 -1.8 1.8
v 5 -1.8 1
v 5 -1.8 0.8
v 5 -1.8 -0.8
v 5 -1.8 -1
v 5 -1.8 -2
v 5 -1.6 1.8
v 5 -1.6 1
v -5 -2 2
v -5 -1.8 2
v -3.4 -1.8 2
v -3.4 -1.6 2
v -2 -1.8 2
v -2 -1.6 2
v -0.8 -1.8 2
v -0.8 -1.6 2
v 0.6 -1.8 2
v 0.6 -1.6 2
v 5 -2 2
v 5 -1.8 2
v -3.2 -1.6 1.8
v -3.2 -1.4 1.8
v -2.4 -1.6 1.8
v -2.4 -1.4 1.8
v -0.4 -1.6 1.8
v -0.4 -1.4 1.8
v 0.2 -1.6 1.8
v 0.2 -1.4 1.8
v 3.6 -1.8 1.8
v 3.6 -1.6 1.8
v 5 -1.8 1.8
v 5 -1.6 1.8
v 4 -1.6 1.6
v 4 -1.4 1.6
v 4.6 -1.6 1.6
v 4.6 -1.4 1.6
v -4.6 -1.8 -1.2
v -4.6 -1.6 -1.2
v -4.4 -1.6 -1.2
v -4.4 -1.4 -1.2
v -4 -1.6 -1.2
v -4 -1.4 -1.2
v -3.8 -1.8 -1.2
v -3.8 -1.6 -1.2
v 0 -1.8 -1.2
v 0 -1.6 -1.2
v 2.6 -1.8 -1.2
v 2.6 -1.6 -1.2
v 0.8 -1.6 -1.4
v 0.8 -1.4 -1.4
v 1.8 -1.6 -1.4
v 1.8 -1.4 -1.4
v -3.2 -1.6 1.4
v -3.2 -1.4 1.4
v -2.4 -1.6 1.4
v -2.4 -1.4 1.4
v -0.4 -1.6 1.4
v -0.4 -1.4 1.4
v 0.2 -1.6 1.4
v 0.2 -1.4 1.4
v -3.4 -1.8 1.2
v -3.4 -1.6 1.2
v -2 -1.8 1.2
v -2 -1.6 1.2
v -0.8 -1.8 1.2
v -0.8 -1.6 1.2
v 0.6 -1.8 1.2
v 0.6 -1.6 1.2
v 4 -1.6 1.2
v 4 -1.4 1.2
v 4.6 -1.6 1.2
v 4.6 -1.4 1.2
v 3.6 -1.8 1
v 3.6 -1.6 1
v 5 -1.8 1
v 5 -1.6 1
v -4.6 -1.8 -1.8
v -4.6 -1.6 -1.8
v -4.4 -1.6 -1.8
v -4.4 -1.4 -1.8
v -4 -1.6 -1.8
v -4 -1.4 -1.8
v -3.8 -1.8 -1.8
v -3.8 -1.6 -1.8
v 0 -1.8 -1.8
v 0 -1.6 -1.8
v 0.8 -1.6 -1.8
v 0.8 -1.4 -1.8
v 1.8 -1.6 -1.8
v 1.8 -1.4 -1.8
v 2.6 -1.8 -1.8
v 2.6 -1.6 -1.8
v -5 -2 -2
v -5 -1.8 -2
v 5 -2 -2
v 5 -1.8 -2
v -5 -2 2
v 5 -2 2
v -5 -2 1
v 5 -2 1
v -5 -2 0.8
v 5 -2 0.8
v -5 -2 -0.8
v 5 -2 -0.8
v -5 -2 -1
v 5 -2 -1
v -5 -2 -2
v 5 -2 -2
v -5 -1.8 2
v -3.4 -1.8 2
v -2 -1.8 2
v -0.8 -1.8 2
v 0.6 -1.8 2
v 5 -1.8 2
v 3.6 -1.8 1.8
v 5 -1.8 1.8
v -3.4 -1.8 1.2
v -2 -1.8 1.2
v -0.8 -1.8 1.2
v 0.6 -1.8 1.2
v -5 -1.8 1
v 3.6 -1.8 1
v 5 -1.8 1
v -5 -1.8 0.8
v 5 -1.8 0.8
v -5 -1.8 -0.8
v 5 -1.8 -0.8
v -5 -1.8 -1
v 5 -1.8 -1
v -4.6 -1.8 -1.2
v -3.8 -1.8 -1.2
v 0 -1.8 -1.2
v 2.6 -1.8 -1.2
v -4.6 -1.8 -1.8
v -3.8 -1.8 -1.8
v 0 -1.8 -1.8
v 2.6 -1.8 -1.8
v -5 -1.8 -2
v 5 -1.8 -2
v -3.4 -1.6 2
v -2 -1.6 2
v -0.8 -1.6 2
v 0.6 -1.6 2
v -3.2 -1.6 1.8
v -2.4 -1.6 1.8
v -0.4 -1.6 1.8
v 0.2 -1.6 1.8
v 3.6 -1.6 1.8
v 5 -1.6 1.8
v 4 -1.6 1.6
v 4.6 -1.6 1.6
v -3.2 -1.6 1.4
v -2.4 -1.6 1.4
v -0.4 -1.6 1.4
v 0.2 -1.6 1.4
v -3.4 -1.6 1.2
v -2 -1.6 1.2
v -0.8 -1.6 1.2
v 0.6 -1.6 1.2
v 4 -1.6 1.2
v 4.6 -1.6 1.2
v 3.6 -1.6 1
v 5 -1.6 1
v -4.6 -1.6 -1.2
v -4.4 -1.6 -1.2
v -4 -1.6 -1.2
v -3.8 -1.6 -1.2
v 0 -1.6 -1.2
v 2.6 -1.6 -1.2
v 0.8 -1.6 -1.4
v 1.8 -1.6 -1.4
v -4.6 -1.6 -1.8
v -4.4 -1.6 -1.8
v -4 -1.6 -1.8
v -3.8 -1.6 -1.8
v 0 -1.6 -1.8
v 0.8 -1.6 -1.8
v 1.8 -1.6 -1.8
v 2.6 -1.6 -1.8
v -3.2 -1.4 1.8
v -2.4 -1.4 1.8
v -0.4 -1.4 1.8
v 0.2 -1.4 1.8
v 4 -1.4 1.6
v 4.6 -1.4 1.6
v -3.2 -1.4 1.4
v -2.4 -1.4 1.4
v -0.4 -1.4 1.4
v 0.2 -1.4 1.4
v 4 -1.4 1.2
v 4.6 -1.4 1.2
v -4.4 -1.4 -1.2
v -4 -1.4 -1.2
v 0.8 -1.4 -1.4
v 1.8 -1.4 -1.4
v -4.4 -1.4 -1.8
v -4 -1.4 -1.8
v 0.8 -1.4 -1.8
v 1.8 -1.4 -1.8

# faces
f 7/7/1 2/7/1 1/7/1
f 8/6/1 3/6/1 2/6/1
f 8/7/1 2/7/1 7/7/1
f 9/7/1 4/7/1 3/7/1
f 9/6/1 3/6/1 8/6/1
f 10/6/1 5/6/1 4/6/1
f 10/7/1 4/7/1 9/7/1
f 11/7/1 6/7/1 5/7/1
f 11/6/1 5/6/1 10/6/1
f 12/7/1 6/7/1 11/7/1
f 15/5/1 14/5/1 13/5/1
f 16/5/1 14/5/1 15/5/1
f 19/4/1 18/4/1 17/4/1
f 20/4/1 18/4/1 19/4/1
f 23/3/1 22/3/1 21/3/1
f 24/3/1 22/3/1 23/3/1
f 27/3/1 26/3/1 25/3/1
f 28/3/1 26/3/1 27/3/1
f 31/1/1 30/1/1 29/1/1
f 32/1/1 30/1/1 31/1/1
f 35/1/1 34/1/1 33/1/1
f 36/1/1 34/1/1 35/1/1
f 39/4/1 38/4/1 37/4/1
f 40/4/1 38/4/1 39/4/1
f 43/4/1 42/4/1 41/4/1
f 44/4/1 42/4/1 43/4/1
f 47/2/1 46/2/1 45/2/1
f 48/2/1 46/2/1 47/2/1
f 51/2/1 50/2/1 49/2/1
f 52/2/1 50/2/1 51/2/1
f 53/4/2 54/4/2 55/4/2
f 55/4/2 54/4/2 56/4/2
f 57/5/2 58/5/2 59/5/2
f 59/5/2 58/5/2 60/5/2
f 61/3/2 62/3/2 63/3/2
f 63/3/2 62/3/2 64/3/2
f 65/3/2 66/3/2 67/3/2
f 67/3/2 66/3/2 68/3/2
f 69/1/2 70/1/2 71/1/2
f 71/1/2 70/1/2 72/1/2
f 73/1/2 74/1/2 75/1/2
f 75/1/2 74/1/2 76/1/2
f 77/4/2 78/4/2 79/4/2
f 79/4/2 78/4/2 80/4/2
f 81/4/2 82/4/2 83/4/2
f 83/4/2 82/4/2 84/4/2
f 85/2/2 86/2/2 87/2/2
f 87/2/2 86/2/2 88/2/2
f 89/7/2 90/7/2 95/7/2
f 95/7/2 90/7/2 96/7/2
f 90/6/2 91/6/2 97/6/2
f 96/7/2 90/7/2 97/7/2
f 91/7/2 92/7/2 98/7/2
f 97/6/2 91/6/2 98/6/2
f 92/6/2 93/6/2 99/6/2
f 98/7/2 92/7/2 99/7/2
f 93/7/2 94/7/2 100/7/2
f 99/6/2 93/6/2 100/6/2
f 100/7/2 94/7/2 101/7/2
f 96/2/2 97/2/2 102/2/2
f 102/2/2 97/2/2 103/2/2
f 106/7/3 105/7/3 104/7/3
f 108/7/3 106/7/3 104/7/3
f 108/3/3 107/3/3 106/3/3
f 109/3/3 107/3/3 108/3/3
f 110/7/3 108/7/3 104/7/3
f 112/7/3 110/7/3 104/7/3
f 112/1/3 111/1/3 110/1/3
f 113/1/3 111/1/3 112/1/3
f 114/7/3 112/7/3 104/7/3
f 115/7/3 112/7/3 114/7/3
f 118/3/3 117/3/3 116/3/3
f 119/3/3 117/3/3 118/3/3
f 122/1/3 121/1/3 120/1/3
f 123/1/3 121/1/3 122/1/3
f 126/2/3 125/2/3 124/2/3
f 127/2/3 125/2/3 126/2/3
f 130/2/3 129/2/3 128/2/3
f 131/2/3 129/2/3 130/2/3
f 134/5/3 133/5/3 132/5/3
f 136/5/3 134/5/3 132/5/3
f 136/4/3 135/4/3 134/4/3
f 137/4/3 135/4/3 136/4/3
f 138/5/3 136/5/3 132/5/3
f 139/5/3 136/5/3 138/5/3
f 142/4/3 141/4/3 140/4/3
f 143/4/3 141/4/3 142/4/3
f 146/4/3 145/4/3 144/4/3
f 147/4/3 145/4/3 146/4/3
f 148/3/4 149/3/4 150/3/4
f 150/3/4 149/3/4 151/3/4
f 152/1/4 153/1/4 154/1/4
f 154/1/4 153/1/4 155/1/4
f 156/3/4 157/3/4 158/3/4
f 158/3/4 157/3/4 159/3/4
f 160/1/4 161/1/4 162/1/4
f 162/1/4 161/1/4 163/1/4
f 164/2/4 165/2/4 166/2/4
f 166/2/4 165/2/4 167/2/4
f 168/2/4 169/2/4 170/2/4
f 170/2/4 169/2/4 171/2/4
f 172/5/4 173/5/4 174/5/4
f 172/5/4 174/5/4 176/5/4
f 174/4/4 175/4/4 176/4/4
f 176/4/4 175/4/4 177/4/4
f 172/5/4 176/5/4 178/5/4
f 178/5/4 176/5/4 179/5/4
f 180/4/4 181/4/4 182/4/4
f 180/4/4 182/4/4 184/4/4
f 182/4/4 183/4/4 184/4/4
f 184/4/4 183/4/4 185/4/4
f 180/4/4 184/4/4 186/4/4
f 186/4/4 184/4/4 187/4/4
f 188/7/4 189/7/4 190/7/4
f 190/7/4 189/7/4 191/7/4
f 194/7/5 193/7/5 192/7/5
f 195/7/5 193/7/5 194/7/5
f 196/6/5 195/6/5 194/6/5
f 197/6/5 195/6/5 196/6/5
f 198/7/5 197/7/5 196/7/5
f 199/7/5 197/7/5 198/7/5
f 200/6/5 199/6/5 198/6/5
f 201/6/5 199/6/5 200/6/5
f 202/7/5 201/7/5 200/7/5
f 203/7/5 201/7/5 202/7/5
f 208/7/6 209/7/6 210/7/6
f 210/7/6 209/7/6 211/7/6
f 204/7/6 205/7/6 212/7/6
f 206/7/6 207/7/6 213/7/6
f 213/7/6 207/7/6 214/7/6
f 208/7/6 210/7/6 215/7/6
f 204/7/6 212/7/6 216/7/6
f 214/7/6 215/7/6 216/7/6
f 213/7/6 214/7/6 216/7/6
f 212/7/6 213/7/6 216/7/6
f 215/7/6 210/7/6 217/7/6
f 216/7/6 215/7/6 217/7/6
f 216/6/6 217/6/6 219/6/6
f 217/6/6 218/6/6 219/6/6
f 219/6/6 218/6/6 220/6/6
f 219/7/6 220/7/6 221/7/6
f 221/7/6 220/7/6 222/7/6
f 221/6/6 222/6/6 223/6/6
f 223/6/6 222/6/6 224/6/6
f 223/7/6 224/7/6 225/7/6
f 225/7/6 224/7/6 226/7/6
f 226/7/6 224/7/6 227/7/6
f 227/7/6 224/7/6 228/7/6
f 223/7/6 225/7/6 229/7/6
f 226/7/6 227/7/6 230/7/6
f 230/7/6 227/7/6 231/7/6
f 228/7/6 224/7/6 232/7/6
f 230/7/6 231/7/6 233/7/6
f 231/7/6 232/7/6 233/7/6
f 223/7/6 229/7/6 233/7/6
f 229/7/6 230/7/6 233/7/6
f 232/7/6 224/7/6 234/7/6
f 233/7/6 232/7/6 234/7/6
f 235/3/6 236/3/6 239/3/6
f 239/3/6 236/3/6 240/3/6
f 237/1/6 238/1/6 241/1/6
f 241/1/6 238/1/6 242/1/6
f 243/2/6 244/2/6 245/2/6
f 245/2/6 244/2/6 246/2/6
f 235/3/6 239/3/6 247/3/6
f 240/3/6 236/3/6 248/3/6
f 237/1/6 241/1/6 249/1/6
f 242/1/6 238/1/6 250/1/6
f 235/3/6 247/3/6 251/3/6
f 247/3/6 248/3/6 251/3/6
f 248/3/6 236/3/6 252/3/6
f 251/3/6 248/3/6 252/3/6
f 249/1/6 250/1/6 253/1/6
f 237/1/6 249/1/6 253/1/6
f 250/1/6 238/1/6 254/1/6
f 253/1/6 250/1/6 254/1/6
f 243/2/6 245/2/6 255/2/6
f 246/2/6 244/2/6 256/2/6
f 255/2/6 256/2/6 257/2/6
f 243/2/6 255/2/6 257/2/6
f 256/2/6 244/2/6 258/2/6
f 257/2/6 256/2/6 258/2/6
f 263/4/6 264/4/6 265/4/6
f 265/4/6 264/4/6 266/4/6
f 259/5/6 260/5/6 267/5/6
f 267/5/6 260/5/6 268/5/6
f 261/5/6 262/5/6 269/5/6
f 269/5/6 262/5/6 270/5/6
f 263/4/6 265/4/6 271/4/6
f 271/4/6 265/4/6 272/4/6
f 266/4/6 264/4/6 273/4/6
f 273/4/6 264/4/6 274/4/6
f 275/3/6 276/3/6 281/3/6
f 281/3/6 276/3/6 282/3/6
f 277/1/6 278/1/6 283/1/6
f 283/1/6 278/1/6 284/1/6
f 279/2/6 280/2/6 285/2/6
f 285/2/6 280/2/6 286/2/6
f 287/4/6 288/4/6 291/4/6
f 291/4/6 288/4/6 292/4/6
f 289/4/6 290/4/6 293/4/6
f 293/4/6 290/4/6 294/4/6
